<svg width="96" height="96" viewBox="0 0 96 96" fill="none" xmlns="http://www.w3.org/2000/svg">
<g clip-path="url(#clip0_298_81)">
<mask id="mask0_298_81" style="mask-type:luminance" maskUnits="userSpaceOnUse" x="0" y="0" width="96" height="96">
<path d="M96 0H0V96H96V0Z" fill="white"/>
</mask>
<g mask="url(#mask0_298_81)">
<mask id="mask1_298_81" style="mask-type:luminance" maskUnits="userSpaceOnUse" x="1" y="11" width="97" height="74">
<path d="M97.6875 11.9062H1.6875V84.0938H97.6875V11.9062Z" fill="white"/>
</mask>
<g mask="url(#mask1_298_81)">
<path d="M1.6875 39.8188C1.6875 24.4031 14.1519 11.9062 29.5275 11.9062V79.2812H1.6875V39.8188Z" fill="#FEC544"/>
<path d="M33.5275 42.9951C35.5755 43.5083 37.5595 43.7649 39.4795 43.7649C42.6795 43.7649 45.6876 43.1554 48.5035 41.9363C51.3835 40.7171 53.8795 39.0487 55.9915 36.9313C58.1035 34.8137 59.7675 32.3434 60.9835 29.52C62.1996 26.6325 62.8075 23.5845 62.8075 20.3762C62.8075 17.4887 62.2635 14.6654 61.1755 11.9062L33.5275 42.9951Z" fill="#FEC544"/>
<path d="M34.6382 58.9344C33.8978 60.689 33.5275 62.5785 33.5275 64.6031C33.5275 66.6277 33.8978 68.5511 34.6382 70.3732C35.4458 72.1279 36.4892 73.68 37.7682 75.0298C39.1142 76.3119 40.6624 77.358 42.4125 78.1678C44.2298 78.9101 46.1483 79.2814 48.1675 79.2814C50.1868 79.2814 52.0716 78.9101 53.8215 78.1678C55.639 77.358 57.1872 76.3119 58.4661 75.0298C59.8123 73.68 60.8556 72.1279 61.5958 70.3732C62.4038 68.5511 62.8075 66.6277 62.8075 64.6031C62.8075 62.5785 62.4038 60.689 61.5958 58.9344C60.8556 57.1123 59.8123 55.5602 58.4661 54.2779C57.1872 52.9282 55.639 51.8822 53.8215 51.1397C52.0716 50.33 50.1868 49.925 48.1675 49.925C46.1483 49.925 44.2298 50.33 42.4125 51.1397C40.6624 51.8822 39.1142 52.9282 37.7682 54.2779C36.4892 55.5602 35.4458 57.1123 34.6382 58.9344Z" fill="#FEC544"/>
<path d="M66.8076 11.9062H94.6476V51.3688C94.6476 66.7843 82.1828 79.2812 66.8076 79.2812V11.9062Z" fill="#FEC544"/>
</g>
</g>
</g>
<defs>
<clipPath id="clip0_298_81">
<rect width="96" height="96" fill="white"/>
</clipPath>
</defs>
</svg>
